<?xml version="1.0" standalone="no"?>
<!DOCTYPE svg PUBLIC "-//W3C//DTD SVG 20010904//EN"
 "http://www.w3.org/TR/2001/REC-SVG-20010904/DTD/svg10.dtd">
<svg version="1.0" xmlns="http://www.w3.org/2000/svg"
 width="612.000000pt" height="612.000000pt" viewBox="0 0 612.000000 612.000000"
 preserveAspectRatio="xMidYMid meet">
<metadata>
Created by potrace 1.11, written by Peter Selinger 2001-2013
</metadata>
<g transform="translate(0.000000,612.000000) scale(0.100000,-0.100000)"
fill="#000000" stroke="none">
<path d="M1140 5521 c-59 -12 -131 -54 -171 -99 -131 -149 -102 -410 57 -515
97 -63 187 -71 289 -23 64 29 105 70 139 140 35 71 39 88 38 166 0 69 -3 87
-15 108 -5 6 -6 12 -2 12 12 0 -58 114 -84 136 -65 57 -175 90 -251 75z m129
-156 c67 -34 107 -119 98 -204 -7 -61 -14 -76 -51 -115 -42 -45 -62 -54 -121
-54 -60 0 -79 9 -126 61 -82 89 -61 247 41 306 42 25 118 27 159 6z"/>
<path d="M5780 5444 c-91 -47 -266 -137 -390 -201 -299 -154 -530 -273 -670
-345 -117 -61 -185 -108 -252 -174 l-38 -36 0 -137 0 -136 103 -51 c97 -48
127 -56 127 -32 0 6 8 18 18 27 9 9 37 40 62 70 37 45 121 114 221 181 12 8
34 24 48 36 14 11 76 56 136 100 61 43 117 84 125 91 12 10 219 160 685 498
84 61 122 91 126 97 5 9 -111 98 -126 98 -5 -1 -84 -39 -175 -86z"/>
<path d="M1100 4658 c-19 -7 -60 -37 -90 -68 -68 -68 -88 -125 -85 -231 3 -91
27 -145 96 -211 124 -120 299 -90 401 69 85 130 39 329 -94 414 -42 27 -61 33
-121 35 -40 2 -88 -2 -107 -8z m177 -141 c40 -27 71 -98 67 -152 -8 -96 -68
-159 -153 -159 -168 0 -203 261 -46 334 29 14 95 2 132 -23z"/>
<path d="M4150 4204 c-102 -62 -191 -117 -199 -121 -8 -3 -136 -80 -284 -169
-148 -90 -283 -166 -301 -169 -31 -7 -444 -107 -701 -171 -76 -19 -141 -38
-145 -42 -3 -4 -133 -108 -290 -231 -157 -123 -298 -234 -314 -247 -16 -13
-43 -34 -59 -46 -122 -93 -342 -271 -342 -276 0 -4 12 -32 27 -62 15 -30 30
-70 33 -88 3 -19 6 -37 7 -40 1 -4 -2 -43 -6 -86 -14 -141 -92 -262 -181 -285
-43 -11 -50 -17 -103 -100 -113 -177 -149 -236 -150 -245 0 -5 -4 -12 -9 -15
-5 -3 -39 -53 -75 -111 -47 -74 -88 -124 -140 -171 -40 -36 -100 -90 -133
-119 -33 -30 -65 -59 -71 -64 -6 -6 -48 -45 -94 -86 -46 -41 -95 -85 -109 -98
-14 -13 -21 -26 -15 -31 5 -5 48 -38 96 -74 l87 -66 92 56 c51 30 111 65 133
78 23 12 121 68 219 125 189 110 191 112 447 390 18 19 78 85 135 145 56 61
117 126 135 145 18 19 82 89 144 154 61 65 125 134 141 151 53 57 239 257 275
295 19 20 80 86 135 145 55 59 129 138 165 175 74 77 29 57 545 244 160 58
304 114 322 123 17 10 98 81 178 158 81 77 168 160 194 184 387 365 511 483
581 550 73 69 74 72 55 87 -28 21 -221 124 -231 123 -5 0 -92 -52 -194 -115z"/>
<path d="M1135 3838 c-37 -13 -84 -46 -107 -73 -44 -53 -60 -182 -31 -254 69
-173 286 -197 384 -43 26 41 48 129 40 157 -2 6 -4 22 -6 37 -6 40 -50 121
-77 137 -74 46 -147 60 -203 39z m134 -108 c31 -16 60 -84 56 -131 -11 -139
-163 -180 -235 -64 -18 30 -23 61 -18 119 2 26 71 94 100 98 26 4 65 -4 97
-22z"/>
<path d="M2045 3662 c-55 -43 -250 -194 -432 -336 -183 -142 -333 -262 -333
-265 0 -8 188 -191 196 -191 6 0 125 89 134 100 3 3 21 17 40 30 19 14 42 30
50 37 46 36 171 132 205 157 22 17 42 32 45 35 3 4 59 46 125 96 66 49 122 93
125 96 3 3 30 24 60 46 91 66 91 65 29 130 -88 92 -138 143 -141 143 -2 0 -48
-35 -103 -78z"/>
<path d="M1075 2753 c-167 -34 -268 -75 -355 -143 -126 -99 -180 -187 -185
-301 -3 -46 1 -78 11 -98 19 -38 70 -81 95 -81 24 0 26 -7 32 -93 2 -37 7 -70
10 -73 2 -3 112 17 243 43 l239 48 3 67 3 67 64 32 c86 42 177 130 195 189 19
62 20 69 21 121 3 127 -103 214 -272 222 -46 3 -93 3 -104 0z"/>
<path d="M339 1037 c-30 -25 -76 -63 -161 -132 -48 -39 -63 -57 -73 -85 -1 -3
-5 -12 -8 -20 -12 -28 -69 -185 -77 -211 -6 -19 -1 -43 20 -89 l27 -62 25 33
c14 19 57 86 96 150 52 83 81 120 104 132 31 15 79 42 218 119 86 48 85 47 37
78 -68 44 -176 110 -179 110 -2 0 -15 -10 -29 -23z"/>
</g>
</svg>
